HIERARCHY
ROOT Hips
{
  OFFSET 38.9256 100.715 9.78224
  CHANNELS 6 Xposition Yposition Zposition Zrotation Xrotation Yrotation
  JOINT spine
  {
    OFFSET 0 8.81704 0.507024
    CHANNELS 3 Zrotation Xrotation Yrotation
    JOINT spine1
    {
      OFFSET 0 10.7766 0
      CHANNELS 3 Zrotation Xrotation Yrotation
      JOINT spine2
      {
        OFFSET 0 10.3259 0
        CHANNELS 3 Zrotation Xrotation Yrotation
        JOINT Neck
        {
          OFFSET 0 26.511 1.26395
          CHANNELS 3 Zrotation Xrotation Yrotation
          JOINT Head
          {
            OFFSET 0 8.00966 0
            CHANNELS 3 Zrotation Xrotation Yrotation
            End Site
            {
              OFFSET 0 19.3879 -6.39386
            }
          }
        }
        JOINT RightShoulder
        {
          OFFSET -4.34795 11.1512 -0.605422
          CHANNELS 3 Zrotation Xrotation Yrotation
          JOINT RightArm
          {
            OFFSET 0 14.6258 0
            CHANNELS 3 Zrotation Xrotation Yrotation
            JOINT RightArmRoll
            {
              OFFSET 0 7.3834 0
              CHANNELS 3 Zrotation Xrotation Yrotation
              JOINT RightForeArm
              {
                OFFSET 0 21.5052 0
                CHANNELS 3 Zrotation Xrotation Yrotation
                JOINT RightForeArmRoll
                {
                  OFFSET 0 8.28532 0
                  CHANNELS 3 Zrotation Xrotation Yrotation
                  JOINT RightHand
                  {
                    OFFSET 0 16.6268 0
                    CHANNELS 3 Zrotation Xrotation Yrotation
                    End Site
                    {
                      OFFSET 0 0 0
                    }
                  }
                }
              }
            }
          }
        }
        JOINT LeftShoulder
        {
          OFFSET 4.34795 11.1512 -0.605422
          CHANNELS 3 Zrotation Xrotation Yrotation
          JOINT LeftArm
          {
            OFFSET 0 14.6258 0
            CHANNELS 3 Zrotation Xrotation Yrotation
            JOINT LeftArmRoll
            {
              OFFSET 0 7.3834 0
              CHANNELS 3 Zrotation Xrotation Yrotation
              JOINT LeftForeArm
              {
                OFFSET 0 21.5052 0
                CHANNELS 3 Zrotation Xrotation Yrotation
                JOINT LeftForeArmRoll
                {
                  OFFSET 0 8.28532 0
                  CHANNELS 3 Zrotation Xrotation Yrotation
                  JOINT LeftHand
                  {
                    OFFSET 0 16.6268 0
                    CHANNELS 3 Zrotation Xrotation Yrotation
                    End Site
                    {
                      OFFSET 0 0 0
                    }
                  }
                }
              }
            }
          }
        }
      }
    }
  }
  JOINT RightUpLeg
  {
    OFFSET -7.8151 -1.43309 -1.20217
    CHANNELS 3 Zrotation Xrotation Yrotation
    JOINT RightUpLegRoll
    {
      OFFSET 0 19.4959 0
      CHANNELS 3 Zrotation Xrotation Yrotation
      JOINT RightLeg
      {
        OFFSET 0 -24.1427 0
        CHANNELS 3 Zrotation Xrotation Yrotation
        JOINT RightLegRoll
        {
          OFFSET 0 24.2217 0
          CHANNELS 3 Zrotation Xrotation Yrotation
          JOINT RightFoot
          {
            OFFSET 0 20.1605 0
            CHANNELS 3 Zrotation Xrotation Yrotation
            JOINT RightToeBase
            {
              OFFSET 0 16.8532 0
              CHANNELS 3 Zrotation Xrotation Yrotation
              End Site
              {
                OFFSET 0.00714343 8.16186 -0.940781
              }
            }
          }
        }
      }
    }
  }
  JOINT LeftUpLeg
  {
    OFFSET 7.8151 -1.43309 -1.20217
    CHANNELS 3 Zrotation Xrotation Yrotation
    JOINT LeftUpLegRoll
    {
      OFFSET 0 19.496 0
      CHANNELS 3 Zrotation Xrotation Yrotation
      JOINT LeftLeg
      {
        OFFSET 0 24.1426 0
        CHANNELS 3 Zrotation Xrotation Yrotation
        JOINT LeftLegRoll
        {
          OFFSET 0 24.4456 0
          CHANNELS 3 Zrotation Xrotation Yrotation
          JOINT LeftFoot
          {
            OFFSET 0 19.9366 0
            CHANNELS 3 Zrotation Xrotation Yrotation
            JOINT LeftToeBase
            {
              OFFSET 0 16.8532 0
              CHANNELS 3 Zrotation Xrotation Yrotation
              End Site
              {
                OFFSET -0.0320138 8.16187 -0.94078
              }
            }
          }
        }
      }
    }
  }
}
MOTION
Frames: 10
Frame Time: 0.00208333
56.5252 99.249 11.2782 -3.21072 3.38538 70.6764 -1.01455 -1.91881 1.36984 -1.99429 0.14031 2.8378 -2.02905 1.78395 2.87205 -62.0942 -8.40454 -6.99415 45.1631 2.92774 -6.37367 8.77105 11.6071 25.8206 171.88 54.6802 -36.1188 4.77083e-015 -7.95139e-015 -6.36111e-015 -2.0307 11.7979 -0.966192 2.77773e-006 1.02236e-006 -3.00105 8.02885 -4.95106 0.697371 -84.4158 -22.0798 10.5919 -84.7361 0.943949 -15.794 -7.95139e-016 1.19271e-015 -0 -12.4835 13.9382 2.2613 9.77759e-006 -4.13938e-007 3 -8.02989 -4.95092 -0.697222 178.006 -3.84764 1.0002 180 7.0151e-015 178.773 178.135 15.1705 179.81 1.36302e-006 -6.64027e-007 0.643752 -27.9478 75.1912 28.652 8.98889 36.5621 -3.9258 177.572 18.4296 5.71389 4.54188e-006 -4.6773e-006 -1.11491 -3.36517 -18.3058 -0.0726764 -2.79619e-006 -1.61307e-006 -0.452251 25.1625 72.9044 -25.0159 -8.13097 25.233 3.48538 
56.5438 99.2498 11.2798 -3.2204 3.3973 70.698 -1.01578 -1.91865 1.37002 -1.99674 0.140595 2.8381 -2.03151 1.78423 2.8724 -62.0763 -8.39245 -6.9991 45.222 2.91922 -6.37673 8.77218 11.6231 25.842 172.304 54.3573 -36.2733 -4.77083e-015 -3.18055e-015 6.36111e-015 -2.05403 11.6388 -0.963006 2.77773e-006 1.02236e-006 -3.00105 8.02885 -4.95106 0.697371 -84.4133 -22.0775 10.5913 -84.7701 0.944971 -15.9122 -3.97569e-015 -1.86858e-014 -0 -12.3908 13.7596 2.23085 9.77759e-006 -4.13938e-007 3 -8.02989 -4.95092 -0.697222 177.991 -3.84255 1.00774 180 7.0151e-015 178.773 178.132 15.1764 179.811 1.36302e-006 -6.64027e-007 0.644057 -27.9491 75.1945 28.658 8.9899 36.5723 -3.92604 177.551 18.4299 5.73561 4.54188e-006 -4.6773e-006 -1.11573 -3.35382 -18.3156 -0.0703012 -2.79619e-006 -1.61307e-006 -0.45336 25.1726 72.9144 -25.0299 -8.13097 25.233 3.48538 
56.5767 99.2441 11.2572 -3.23038 3.40927 70.7196 -1.01693 -1.91869 1.37015 -1.99904 0.140485 2.83828 -2.03381 1.78412 2.87262 -62.0576 -8.37925 -7.00377 45.2808 2.91163 -6.38063 8.77844 11.6403 25.8621 172.715 54.0399 -36.4325 -4.77083e-015 -3.18055e-015 -6.36111e-015 -2.06612 11.4693 -0.959885 2.77773e-006 1.02236e-006 -3.00105 8.02885 -4.95106 0.697371 -84.4111 -22.0747 10.5906 -84.8028 0.946268 -16.0288 -1.59028e-015 2.18663e-014 -6.36111e-015 -12.2995 13.5828 2.20099 9.77759e-006 -4.13938e-007 3 -8.02989 -4.95092 -0.697222 177.977 -3.83699 1.01497 180 7.0151e-015 178.773 178.129 15.1821 179.811 1.36302e-006 -6.64027e-007 0.64437 -27.9502 75.1975 28.6637 8.9909 36.5823 -3.92628 177.53 18.4306 5.75581 4.54188e-006 -4.6773e-006 -1.11654 -3.34399 -18.3244 -0.0682941 -2.79619e-006 -1.61307e-006 -0.454357 25.1835 72.924 -25.0437 -8.13097 25.233 3.48538 
56.5959 99.2479 11.2565 -3.2406 3.4212 70.7411 -1.01799 -1.91891 1.3702 -2.00115 0.140008 2.83831 -2.03592 1.78364 2.87269 -62.0381 -8.3648 -7.00815 45.3393 2.90476 -6.38537 8.7905 11.6591 25.881 173.11 53.729 -36.5981 -4.77083e-015 -9.54166e-015 6.36111e-015 -2.06309 11.2891 -0.957122 2.77773e-006 1.02236e-006 -3.00105 8.02885 -4.95106 0.697371 -84.4093 -22.0713 10.5895 -84.8342 0.947562 -16.1437 -4.77083e-015 6.75868e-015 2.22639e-014 -12.2098 13.4082 2.17177 9.77759e-006 -4.13938e-007 3 -8.02989 -4.95092 -0.697222 177.963 -3.83108 1.02186 180 7.0151e-015 178.773 178.127 15.1876 179.812 1.36302e-006 -6.64027e-007 0.644688 -27.9509 75.2002 28.6688 8.99191 36.5924 -3.92651 177.511 18.4315 5.77387 4.54188e-006 -4.6773e-006 -1.11733 -3.3362 -18.3321 -0.0667842 -2.79619e-006 -1.61307e-006 -0.455215 25.1956 72.9333 -25.0573 -8.13097 25.233 3.48538 
56.6002 99.231 11.2529 -3.25105 3.43299 70.7624 -1.01893 -1.9193 1.37017 -2.00302 0.139194 2.83816 -2.03778 1.78283 2.87258 -62.0178 -8.34897 -7.01223 45.3972 2.89839 -6.39097 8.80904 11.6801 25.899 173.485 53.4254 -36.7717 -4.77083e-015 -1.74931e-014 6.36111e-015 -2.04107 11.0977 -0.955007 2.77773e-006 1.02236e-006 -3.00105 8.02885 -4.95106 0.697371 -84.408 -22.0671 10.5882 -84.8643 0.948575 -16.2565 -5.56597e-015 -3.97569e-016 9.54166e-015 -12.1219 13.236 2.14323 9.77759e-006 -4.13938e-007 3 -8.02989 -4.95092 -0.697222 177.949 -3.82495 1.02838 180 7.0151e-015 178.774 178.125 15.1926 179.813 1.36302e-006 -6.64027e-007 0.645009 -27.9511 75.2024 28.673 8.99293 36.6025 -3.92677 177.494 18.4327 5.78913 4.54188e-006 -4.6773e-006 -1.11811 -3.33098 -18.3386 -0.0659008 -2.79619e-006 -1.61307e-006 -0.455913 25.2092 72.9423 -25.0708 -8.13097 25.233 3.48538 
56.6251 99.2263 11.2469 -3.26166 3.44453 70.7836 -1.01972 -1.91986 1.37003 -2.0046 0.138073 2.83783 -2.03936 1.7817 2.87227 -61.9968 -8.33162 -7.01599 45.4544 2.89234 -6.39745 8.83473 11.7036 25.9162 173.836 53.1298 -36.9547 -4.77083e-015 1.59028e-014 -0 -1.99619 10.8948 -0.953832 2.77773e-006 1.02236e-006 -3.00105 8.02885 -4.95106 0.697371 -84.4072 -22.0621 10.5864 -84.8928 0.94903 -16.3672 -7.15625e-015 3.18055e-015 1.59028e-014 -12.0363 13.0665 2.11543 9.77759e-006 -4.13938e-007 3 -8.02989 -4.95092 -0.697222 177.937 -3.81872 1.03449 180 7.0151e-015 178.774 178.123 15.1973 179.813 1.36302e-006 -6.64027e-007 0.645331 -27.9505 75.204 28.6759 8.99397 36.613 -3.92706 177.478 18.4342 5.80096 4.54188e-006 -4.6773e-006 -1.11887 -3.32884 -18.3438 -0.0657729 -2.79619e-006 -1.61307e-006 -0.456426 25.2247 72.9511 -25.0843 -8.13097 25.233 3.48538 
56.6399 99.2268 11.2546 -3.27241 3.45573 70.8047 -1.02035 -1.92055 1.36977 -2.00584 0.136673 2.83727 -2.04059 1.7803 2.87174 -61.9751 -8.31262 -7.01944 45.5104 2.8864 -6.4048 8.86823 11.73 25.9329 174.159 52.8431 -37.1488 -1.59028e-015 -1.11319e-014 9.54166e-015 -1.9246 10.68 -0.953887 2.77773e-006 1.02236e-006 -3.00105 8.02885 -4.95106 0.697371 -84.407 -22.0561 10.5843 -84.9198 0.948651 -16.4754 -5.56597e-015 8.74653e-015 9.54166e-015 -11.9531 12.9001 2.08842 9.77759e-006 -4.13938e-007 3 -8.02989 -4.95092 -0.697222 177.925 -3.81251 1.04016 180 7.0151e-015 178.774 178.122 15.2015 179.814 1.36302e-006 -6.64027e-007 0.645652 -27.9489 75.2048 28.6775 8.99506 36.624 -3.92739 177.465 18.436 5.80873 4.54188e-006 -4.6773e-006 -1.11963 -3.33033 -18.3476 -0.0665298 -2.79619e-006 -1.61307e-006 -0.45673 25.2423 72.9597 -25.0977 -8.13097 25.233 3.48538 
56.6615 99.2428 11.246 -3.28325 3.4665 70.8256 -1.02079 -1.92137 1.36937 -2.00671 0.135025 2.83647 -2.04145 1.77865 2.87095 -61.9528 -8.29183 -7.02255 45.5652 2.88036 -6.41303 8.91022 11.7599 25.9491 174.452 52.5661 -37.3554 1.59028e-015 -3.65764e-014 -0 -1.82243 10.453 -0.955461 2.77773e-006 1.02236e-006 -3.00105 8.02885 -4.95106 0.697371 -84.4075 -22.049 10.5816 -84.9452 0.947163 -16.581 -7.95139e-015 2.18663e-014 1.90833e-014 -11.8727 12.7371 2.06226 9.77759e-006 -4.13938e-007 3 -8.02989 -4.95092 -0.697222 177.914 -3.80644 1.04534 180 7.0151e-015 178.774 178.12 15.2052 179.814 1.36302e-006 -6.64027e-007 0.64597 -27.9463 75.2047 28.6773 8.9962 36.6355 -3.92778 177.455 18.438 5.81179 4.54188e-006 -4.6773e-006 -1.12038 -3.33595 -18.3499 -0.0683006 -2.79619e-006 -1.61307e-006 -0.456801 25.2626 72.9679 -25.1113 -8.13097 25.233 3.48538 
56.691 99.2383 11.2191 -3.29444 3.47703 70.8464 -1.02113 -1.92246 1.3688 -2.00736 0.132839 2.83534 -2.04209 1.77647 2.86983 -61.9296 -8.26915 -7.02526 45.6202 2.87512 -6.42244 8.96139 11.7933 25.9649 174.719 52.3018 -37.5902 -3.18055e-015 9.54166e-015 -0 -1.68438 10.2 -0.958239 2.77773e-006 1.02236e-006 -3.00105 8.02885 -4.95106 0.697371 -84.4087 -22.0411 10.5786 -84.9686 0.944905 -16.6846 -3.18055e-015 -3.97569e-015 -0 -11.7943 12.5769 2.03689 9.77759e-006 -4.13938e-007 3 -8.02989 -4.95092 -0.697222 177.905 -3.80011 1.04996 180 7.0151e-015 178.774 178.119 15.2081 179.815 1.36302e-006 -6.64027e-007 0.646283 -27.9425 75.2036 28.6753 8.99737 36.6474 -3.9282 177.449 18.4402 5.80965 4.54188e-006 -4.6773e-006 -1.1211 -3.34626 -18.35 -0.0712204 -2.79619e-006 -1.61307e-006 -0.456588 25.2856 72.9758 -25.1247 -8.13097 25.233 3.48538 
56.7094 99.2231 11.2215 -3.30622 3.48762 70.8669 -1.02145 -1.92395 1.36805 -2.00799 0.129871 2.83385 -2.0427 1.7735 2.86834 -61.9055 -8.24466 -7.02753 45.6771 2.8716 -6.4332 9.02148 11.8301 25.98 174.97 52.0514 -37.8625 4.77083e-015 1.90833e-014 -9.54166e-015 -1.51104 9.91174 -0.961663 2.77773e-006 1.02236e-006 -3.00105 8.02885 -4.95106 0.697371 -84.4106 -22.0329 10.5754 -84.9896 0.942447 -16.787 -5.56597e-015 -1.11319e-014 -0 -11.7172 12.4188 2.01221 9.77759e-006 -4.13938e-007 3 -8.02989 -4.95092 -0.697222 177.896 -3.79306 1.05402 180 7.0151e-015 178.775 178.118 15.2101 179.815 1.36302e-006 -6.64027e-007 0.646595 -27.9376 75.2016 28.6717 8.99855 36.6593 -3.92861 177.445 18.4426 5.80269 4.54188e-006 -4.6773e-006 -1.12179 -3.36103 -18.3475 -0.075239 -2.79619e-006 -1.61307e-006 -0.456077 25.311 72.9832 -25.1378 -8.13097 25.233 3.48538 
